<svg width="337" height="232" viewBox="0 0 337 232" fill="none" xmlns="http://www.w3.org/2000/svg">
<g clip-path="url(#clip0_35_829)">
<path d="M110.834 56.3838C112.526 54.8507 114.331 53.423 116.226 52.0927C116.584 52.5389 116.958 52.9931 117.349 53.4555L118.178 54.4775C112.176 58.4441 107.019 63.5382 103.433 69.6219L101.627 67.4399C104.051 63.4408 107.141 59.7176 110.834 56.3756V56.3838Z" fill="#A3802C"/>
<path d="M242.888 57.7952C242.351 60.0015 241.977 62.4512 241.758 65.1524C238.724 65.1849 236.194 65.5093 234.283 65.85C234.234 65.8581 234.186 65.8662 234.145 65.8743C234.088 65.047 234.023 64.2439 233.942 63.4652C233.942 63.4165 233.933 63.3597 233.925 63.3192C233.616 60.3828 233.104 57.7546 232.404 55.4509C235.869 56.2945 239.367 57.0895 242.888 57.8033V57.7952Z" fill="#A3802C"/>
<path d="M157.796 78.131L157.463 77.6037L155.592 78.7231L155.942 79.2747C157.373 81.5703 158.171 84.6851 158.171 88.0596C158.171 90.8094 157.707 93.7215 156.902 96.4794C158.26 98.1423 159.618 99.7971 160.968 101.46C161.595 99.1238 161.928 96.5768 161.928 93.9405C161.928 88.0677 160.391 82.1624 157.796 78.131ZM157.796 78.131L157.463 77.6037L155.592 78.7231L155.942 79.2747C157.373 81.5703 158.171 84.6851 158.171 88.0596C158.171 90.8094 157.707 93.7215 156.902 96.4794C158.26 98.1423 159.618 99.7971 160.968 101.46C161.595 99.1238 161.928 96.5768 161.928 93.9405C161.928 88.0677 160.391 82.1624 157.796 78.131ZM99.1138 203.131C99.1708 203.504 99.2277 203.901 99.3009 204.323C99.4147 205.045 99.5449 205.735 99.6994 206.408C125.214 194.078 144.588 169.597 160.399 144.216C158.276 141.612 156.153 139.017 154.023 136.413C138.772 163.011 122.636 189.528 99.1138 203.131ZM330.786 0.559701L330.266 0L329.029 1.64666L329.379 2.03601C332.876 5.93769 334.796 11.6077 334.796 18.0078C334.796 22.5584 333.901 27.0684 332.209 31.0674C322.425 55.459 292.47 59.9934 280.017 60.8208C277.748 60.9749 275.397 61.129 273.104 61.129C263.897 61.129 254.942 60.0664 246.19 58.4279C245.092 58.2251 244.003 58.0142 242.904 57.7871C239.383 57.0732 235.885 56.2783 232.421 55.4347C231.103 55.1102 229.785 54.7858 228.476 54.4532C224.189 53.3662 219.944 52.2144 215.731 51.0788C197.138 46.0577 177.91 40.8663 157.121 40.8663C153.347 40.8663 149.476 41.0204 145.588 41.3367C136.267 42.1884 127.02 45.3358 119.089 50.2271C118.122 50.8273 117.17 51.4438 116.243 52.0927C114.348 53.4149 112.534 54.8507 110.842 56.3838C107.15 59.7257 104.059 63.449 101.643 67.448C101.001 68.4944 100.407 69.5651 99.8702 70.6521C99.4148 71.5687 98.9837 72.4853 98.5933 73.4262C96.381 78.7069 95.2342 84.3201 95.2342 90.0713C95.2342 91.3123 95.2342 92.74 95.3968 93.9973C95.771 97.9152 96.8527 101.525 98.6014 104.761C100.61 108.468 103.49 111.689 107.182 114.268C113.25 118.519 121.18 120.863 129.533 120.863C133.274 120.863 136.894 120.409 140.277 119.541C140.293 119.541 140.326 119.533 140.342 119.524L137.52 116.109L136.658 115.071C136.658 115.071 136.641 115.071 136.633 115.071C133.282 115.988 129.728 116.491 126.125 116.491C114.242 116.491 99.8458 110.529 98.3899 93.7134L98.3493 93.2916C98.211 91.945 98.0809 90.6796 98.0809 89.4467C98.0809 83.3954 99.4066 77.8552 101.749 72.899C102.27 71.7796 102.855 70.6926 103.473 69.63C107.06 63.5382 112.217 58.4522 118.219 54.4775C119.179 53.8448 120.155 53.2365 121.147 52.6686C128.744 48.2884 137.414 45.571 145.897 44.7761C148.565 44.4597 151.005 44.3137 153.583 44.3137C171.395 44.3137 188.939 49.7971 207.516 55.605C216.162 58.3143 224.938 61.056 233.958 63.303C233.966 63.3516 233.966 63.4003 233.974 63.4571C233.795 63.4571 233.616 63.449 233.429 63.449C231.03 63.449 227.15 63.8627 222.351 65.8176C197.74 75.008 181.123 93.3159 169.069 111.34C171.208 113.96 173.339 116.58 175.487 119.2C186.629 100.754 203.156 77.3523 224.067 68.8594C224.442 68.7053 224.816 68.5674 224.816 68.5674C226.142 68.0726 228.216 67.302 230.818 66.6206C231.859 66.3529 232.982 66.0852 234.177 65.8743C234.226 65.8662 234.275 65.8581 234.316 65.8419C236.227 65.5012 238.765 65.1767 241.79 65.1443H241.928C243.002 65.3633 244.068 65.5823 245.141 65.7851C253.681 67.4155 262.457 68.4376 271.583 68.4376C273.779 68.4376 275.975 68.2997 278.301 68.1537L278.757 68.1294C289.639 67.3993 301.457 63.7248 311.193 58.071C322.498 51.5006 330.615 42.6427 334.666 32.4707C336.195 28.6583 337.041 23.8481 337.041 18.9325C337.041 13.5788 335.967 6.05126 330.827 0.559701H330.786ZM157.796 78.131L157.463 77.6037L155.592 78.7231L155.942 79.2747C157.373 81.5703 158.171 84.6851 158.171 88.0596C158.171 90.8094 157.707 93.7215 156.902 96.4794C158.26 98.1423 159.618 99.7971 160.968 101.46C161.595 99.1238 161.928 96.5768 161.928 93.9405C161.928 88.0677 160.391 82.1624 157.796 78.131ZM27.3364 113.043C36.8525 107.317 48.1336 104.169 59.1055 104.169C67.7188 104.169 76.9991 106.221 84.5143 111.08V105.873C77.7799 103.017 69.9393 101.5 61.5862 101.5C49.1177 101.5 36.2262 104.972 26.214 111.024C9.79263 120.871 0 138.587 0 158.428C0 161.129 0.260269 164.138 0.780808 167.643C2.40749 178.731 7.10861 188.733 14.3799 196.536C21.6918 204.396 31.4845 209.88 42.6679 212.394C49.6952 214.073 56.4947 214.885 63.4407 214.885C69.3374 214.885 75.2666 214.236 81.1471 212.93C81.3098 212.621 81.4724 212.305 81.627 211.964V211.948L81.6432 211.924C81.8222 211.551 81.993 211.137 82.18 210.675C82.2288 210.545 82.2776 210.415 82.3183 210.285C76.324 211.899 70.1263 212.694 63.5789 212.694C57.0315 212.694 50.1913 211.891 42.9363 210.237C21.6186 205.564 6.1814 189.057 2.65149 167.148C2.23669 164.682 2.03335 161.883 2.03335 158.59C2.03335 139.52 11.4844 122.493 27.312 113.051L27.3364 113.043ZM98.577 115.558V130.645C99.4147 133.882 99.8621 137.467 99.8621 141.418C99.8621 143.381 99.8621 145.23 99.5612 147.234C99.3497 149.327 99.0243 151.322 98.577 153.212C98.1215 155.183 97.5522 157.041 96.869 158.793C96.3566 160.131 95.7872 161.397 95.161 162.605C93.2171 166.377 90.7527 169.581 87.9385 172.217C87.3773 172.737 86.808 173.248 86.2305 173.726C85.6693 174.189 85.0999 174.635 84.5225 175.057C78.1377 179.696 70.5574 181.911 63.4569 181.911C53.0461 181.911 42.2612 176.89 41.6106 165.655L41.578 165.055H39.3657L39.3983 165.728C39.992 176.541 50.476 183.809 65.474 183.809C71.7937 183.809 78.4305 182.438 84.5225 179.607C85.0999 179.339 85.6693 179.064 86.2305 178.764C86.808 178.472 87.3773 178.155 87.9385 177.831C90.5005 176.354 92.9324 174.586 95.161 172.534C95.7466 171.99 96.3159 171.431 96.869 170.855C97.4546 170.238 98.0239 169.606 98.577 168.948C103.303 163.303 106.653 155.986 107.662 146.885C107.817 145.076 107.971 142.999 107.971 141.264C107.971 131.043 104.75 122.274 98.577 115.558Z" fill="#A3802C"/>
<path d="M64.002 41.5071C68.8251 41.5071 73.9736 42.9835 79.3172 45.8955C81.985 47.3556 84.8642 49.4971 87.9305 52.3037V168.535C90.9968 165.16 93.51 160.975 95.153 155.921V103.585C93.9249 100.714 93.1359 97.5989 92.8187 94.2812C92.6398 92.8779 92.6398 91.3935 92.6398 90.0794C92.6398 84.9691 93.4938 79.9643 95.153 75.1946V59.742C95.5759 60.2206 95.9907 60.7073 96.4137 61.2021C96.8447 61.7132 97.2758 62.2161 97.6906 62.719C98.2518 63.3923 98.813 64.0736 99.3742 64.7469C101.399 61.5915 104.287 57.8034 108.345 54.1288C110.354 52.3118 112.331 50.803 114.177 49.562C110.924 45.5792 109.354 42.9591 108.524 41.1989C108.288 40.696 107.752 39.5036 106.499 38.6438C105.539 37.9786 104.352 37.646 102.945 37.646C101.351 37.646 98.9594 37.7434 95.6329 37.9462C92.4283 38.1489 88.9472 38.2463 85.2953 38.2463C82.2371 38.2463 78.813 38.1408 75.1041 37.9462C71.3058 37.7434 67.5644 37.646 63.9857 37.646C63.3025 37.646 62.9609 38.295 62.9609 39.5766C62.9609 40.8582 63.3025 41.5071 63.9857 41.5071H64.002Z" fill="#A3802C"/>
<path d="M118.781 223.686C110.33 223.686 104.222 221.398 100.611 216.896C99.2199 215.16 98.0894 212.97 97.2272 210.342C97.0971 209.945 96.9669 209.531 96.8531 209.109C96.7311 208.703 96.6253 208.29 96.5277 207.86C96.3 206.911 96.0967 205.913 95.9259 204.875C95.8527 204.437 95.7876 203.991 95.7225 203.544C95.6412 202.969 95.568 202.368 95.5111 201.76C95.2915 199.675 95.1776 197.436 95.1613 195.044C95.1613 194.816 95.1613 194.589 95.1613 194.362V175.933C94.7709 176.257 94.3642 176.582 93.9576 176.898C92.0625 178.35 90.0535 179.648 87.9389 180.775V194.37C87.9389 198.824 87.6216 202.75 86.971 206.14C86.8734 206.643 86.7758 207.13 86.67 207.608C86.5562 208.111 86.4342 208.606 86.304 209.085C86.0275 210.082 85.7266 211.015 85.3931 211.899C85.1898 212.419 84.9864 212.922 84.7587 213.392C84.5147 213.927 84.2544 214.43 83.9779 214.909C83.5712 215.631 83.1239 216.296 82.6521 216.912C79.1385 221.414 72.8676 223.702 64.0185 223.702C63.3759 223.702 63.3027 224.805 63.3027 225.632C63.3027 226.46 63.3759 227.563 64.0185 227.563C68.2967 227.563 72.8026 227.458 77.4142 227.263C82.1316 227.06 87.0442 226.963 92.0137 226.963C96.9832 226.963 102.002 227.06 106.312 227.263C110.517 227.466 114.714 227.563 118.797 227.563C119.472 227.563 119.822 226.914 119.822 225.632C119.822 224.351 119.472 223.702 118.797 223.702L118.781 223.686Z" fill="#A3802C"/>
<path d="M241.578 68.3241C241.57 68.681 241.562 69.0298 241.545 69.3948C241.537 69.9788 241.529 70.5629 241.529 71.1307V231.416L241.472 231.335C241.301 231.651 240.789 231.854 239.911 231.951C239.569 231.984 239.26 232 238.983 232C238.422 232 238.007 231.927 237.715 231.789L237.682 231.757C215.893 205.434 194.095 179.12 172.306 152.798C171.265 151.541 170.224 150.292 169.191 149.035C167.605 147.12 166.019 145.206 164.433 143.291C163.774 142.497 163.115 141.702 162.448 140.899C160.285 138.287 158.121 135.667 155.958 133.055C155.722 132.771 155.478 132.479 155.242 132.195C154.77 131.619 154.298 131.051 153.818 130.475C153.387 129.948 152.948 129.421 152.509 128.893C149.622 125.405 146.734 121.917 143.847 118.429L140.13 113.936L139.26 112.889L138.406 111.851L105.652 72.2987C106.97 69.9626 108.922 67.0262 111.761 64.0411C114.843 60.8046 117.95 58.5901 120.366 57.13C131.248 70.4574 142.131 83.7767 153.021 97.1121C155.226 99.8133 157.43 102.514 159.634 105.216L160.529 106.311L161.423 107.398C162.578 108.809 163.733 110.22 164.888 111.632C165.62 112.532 166.352 113.433 167.084 114.325C169.63 117.44 172.176 120.547 174.713 123.661C175.039 124.051 175.356 124.448 175.673 124.838C175.754 124.935 175.827 125.024 175.901 125.122C176.015 125.268 176.137 125.405 176.25 125.551C176.641 126.03 177.031 126.509 177.422 126.979C178.91 128.796 180.398 130.621 181.879 132.438C183.026 133.841 184.172 135.245 185.319 136.648C186.726 138.384 188.15 140.12 189.565 141.848L234.315 196.642V71.1307C234.315 70.6845 234.315 70.2303 234.307 69.776C234.307 69.4759 234.299 69.1758 234.29 68.8837C235.356 68.6566 236.592 68.4538 237.967 68.3484C239.309 68.251 240.521 68.2592 241.586 68.3159L241.578 68.3241Z" fill="#A3802C"/>
<path d="M265.768 37.6378C261.725 37.6378 257.268 37.792 252.526 38.0921C247.785 38.3922 242.921 38.5463 238.073 38.5463C233.226 38.5463 228.264 38.3922 223.929 38.0921C219.578 37.792 215.332 37.6378 211.29 37.6378C210.647 37.6378 210.574 38.741 210.574 39.5684C210.574 40.3958 210.647 41.499 211.29 41.499C219.529 41.499 225.491 43.8351 229.005 48.4344C229.899 49.6106 230.68 50.9814 231.355 52.5389C235.397 53.5447 239.472 54.4856 243.588 55.3211C244.482 52.5632 245.662 50.2676 247.134 48.4425C250.851 43.8351 257.114 41.499 265.768 41.499C266.451 41.499 266.792 40.85 266.792 39.5684C266.792 38.2868 266.443 37.6378 265.768 37.6378Z" fill="#A3802C"/>
<path d="M219.146 104.623C218.365 104.275 217.292 104.048 216.365 104.048C215.868 104.048 215.437 104.104 215.153 104.275C215.006 104.388 214.087 105.199 213.225 106.059C211.395 107.819 208.931 109.628 206.125 111.324C201.114 113.66 195.267 115.98 188.581 117.975C184.433 119.216 180.472 120.182 176.779 120.928C177.812 121.95 178.837 122.972 179.862 123.994C185.856 122.98 190.696 121.601 194.177 120.449C197.088 119.484 201.464 118.008 206.377 115.452C204.465 118.867 202.253 123.556 201.602 125.9C201.245 127.052 201.106 127.863 201.106 128.496C201.106 129.477 201.464 130.053 202.245 130.686C202.961 131.262 203.815 131.668 204.311 131.668C205.027 131.668 205.165 131.611 205.165 130.8V130.167C205.165 128.034 207.093 124.343 210.94 119.265C212.721 116.953 214.86 114.017 215.714 112.743C216.568 111.478 217.926 109.628 218.707 108.704C219.773 107.373 220.35 106.57 220.35 105.938C220.35 105.418 219.919 105.013 219.138 104.607L219.146 104.623Z" fill="#A3802C"/>
</g>
<defs>
<clipPath id="clip0_35_829">
<rect width="337" height="232" fill="white"/>
</clipPath>
</defs>
</svg>
